<?xml version="1.0" encoding="UTF-8"?>
<svg xmlns="http://www.w3.org/2000/svg" xmlns:xlink="http://www.w3.org/1999/xlink" width="2835" height="2835" viewBox="0 0 2835 2835">

<path fill-rule="nonzero" fill="rgb(0%, 0%, 0%)" fill-opacity="1" d="M 1367.71875 1508.960938 L 1658.519531 1217.871094 C 1663.21875 1213.171875 1668.789062 1209.460938 1674.949219 1206.910156 C 1681.21875 1204.269531 1687.679688 1203 1694.429688 1203 C 1701.179688 1203 1707.640625 1204.269531 1713.800781 1206.910156 C 1720.058594 1209.460938 1725.550781 1213.171875 1730.339844 1217.871094 C 1735.128906 1222.671875 1738.75 1228.148438 1741.289062 1234.410156 C 1743.941406 1240.671875 1745.210938 1247.128906 1745.210938 1253.878906 C 1745.210938 1260.628906 1743.941406 1267.089844 1741.289062 1273.351562 C 1738.75 1279.511719 1735.128906 1285.089844 1730.339844 1289.789062 L 1439.539062 1580.890625 C 1434.839844 1585.679688 1429.351562 1589.300781 1423.101562 1591.941406 C 1416.839844 1594.480469 1410.378906 1595.761719 1403.621094 1595.761719 C 1396.96875 1595.761719 1390.421875 1594.480469 1384.25 1591.941406 C 1377.988281 1589.300781 1372.511719 1585.679688 1367.71875 1580.890625 C 1363.011719 1576.089844 1359.300781 1570.609375 1356.75 1564.449219 C 1354.109375 1558.191406 1352.839844 1551.71875 1352.839844 1544.980469 C 1352.839844 1538.230469 1354.109375 1531.671875 1356.75 1525.5 C 1359.300781 1519.238281 1363.011719 1513.761719 1367.71875 1508.960938 Z M 2096.96875 1387.539062 C 2107.441406 1780.789062 1786.109375 2104.660156 1393.25 2096.839844 C 1329.070312 2095.664062 1266.339844 2085.585938 1204.988281 2066.796875 C 1143.640625 2047.914062 1086.011719 2021.003906 1032.289062 1985.976562 L 1286.011719 1731.960938 C 1289.730469 1728.140625 1294.328125 1726.289062 1299.710938 1726.289062 C 1305 1726.289062 1309.589844 1728.140625 1313.308594 1731.960938 L 1347.558594 1766.210938 C 1387.191406 1805.941406 1451.570312 1805.941406 1491.199219 1766.210938 L 1848.628906 1408.28125 C 1853.53125 1403.589844 1857.351562 1398.101562 1859.988281 1391.839844 C 1862.628906 1385.578125 1864 1379.03125 1864.101562 1372.171875 C 1864.101562 1365.429688 1862.828125 1358.871094 1860.28125 1352.511719 C 1857.640625 1346.25 1854.019531 1340.671875 1849.121094 1335.878906 C 1844.328125 1331.078125 1838.851562 1327.359375 1832.488281 1324.820312 C 1826.230469 1322.179688 1819.671875 1320.898438 1812.921875 1321 C 1806.070312 1321 1799.609375 1322.371094 1793.351562 1325.109375 C 1787.089844 1327.75 1781.609375 1331.570312 1776.820312 1336.371094 L 1440.808594 1672.871094 C 1437.96875 1675.699219 1434.640625 1677.851562 1430.921875 1679.421875 C 1427.199219 1680.980469 1423.390625 1681.769531 1419.378906 1681.769531 C 1415.371094 1681.769531 1411.550781 1680.980469 1407.828125 1679.421875 C 1404.109375 1677.851562 1400.878906 1675.699219 1398.050781 1672.871094 L 1371.53125 1646.351562 C 1331.800781 1606.621094 1267.519531 1606.621094 1227.890625 1646.351562 L 921.425781 1953.101562 C 902.347656 1972.179688 903.917969 2003.6875 924.855469 2020.515625 C 925.046875 2020.613281 925.148438 2020.714844 925.246094 2020.8125 C 932.097656 2026.1875 939.042969 2031.476562 946.085938 2036.5625 C 949.507812 2039.109375 952.839844 2041.554688 956.359375 2044.003906 C 959.785156 2046.445312 963.40625 2048.988281 966.925781 2051.339844 C 1009.878906 2080.789062 1055.378906 2105.742188 1103.328125 2125.992188 C 1199.609375 2166.699219 1301.769531 2187.449219 1407.140625 2187.449219 C 1512.429688 2187.449219 1614.679688 2166.699219 1710.960938 2125.992188 C 1803.820312 2086.664062 1887.289062 2030.300781 1959.011719 1958.578125 C 2030.628906 1886.855469 2086.898438 1803.300781 2126.230469 1710.238281 C 2166.941406 1613.859375 2187.578125 1511.511719 2187.578125 1406.128906 C 2187.578125 1300.648438 2166.941406 1198.300781 2126.230469 1101.921875 C 2101.378906 1043.109375 2069.769531 988.121094 2031.410156 937.050781 C 2027.789062 932.25 2023.390625 928.339844 2018.210938 925.300781 C 2013.121094 922.171875 2007.539062 920.320312 2001.570312 919.441406 C 1995.609375 918.558594 1989.730469 918.949219 1983.859375 920.410156 C 1978.089844 921.878906 1972.808594 924.519531 1968.011719 928.039062 C 1963.210938 931.660156 1959.199219 936.070312 1956.171875 941.261719 C 1953.140625 946.441406 1951.179688 952.011719 1950.300781 957.988281 C 1949.519531 963.960938 1949.808594 969.820312 1951.28125 975.691406 C 1952.839844 981.46875 1955.390625 986.851562 1959.011719 991.648438 C 2042.28125 1102.511719 2093.058594 1239.300781 2096.96875 1387.539062 Z M 1613.511719 1103.679688 C 1608.710938 1098.988281 1603.230469 1095.269531 1597.070312 1092.730469 C 1590.808594 1090.078125 1584.351562 1088.808594 1577.601562 1088.808594 C 1570.851562 1088.808594 1564.390625 1090.078125 1558.121094 1092.730469 C 1551.960938 1095.269531 1546.480469 1098.988281 1541.691406 1103.679688 L 1250.980469 1394.78125 C 1246.191406 1399.570312 1242.46875 1405.058594 1239.929688 1411.320312 C 1237.378906 1417.578125 1236.011719 1424.039062 1236.011719 1430.789062 C 1236.011719 1437.539062 1237.378906 1443.988281 1239.929688 1450.261719 C 1242.46875 1456.421875 1246.191406 1461.898438 1250.980469 1466.699219 C 1255.679688 1471.5 1261.160156 1475.109375 1267.421875 1477.75 C 1273.679688 1480.300781 1280.140625 1481.570312 1286.890625 1481.570312 C 1293.539062 1481.570312 1300.101562 1480.300781 1306.269531 1477.75 C 1312.53125 1475.109375 1318 1471.5 1322.800781 1466.699219 L 1613.511719 1175.601562 C 1618.300781 1170.898438 1621.921875 1165.328125 1624.558594 1159.171875 C 1627.109375 1152.898438 1628.378906 1146.441406 1628.378906 1139.691406 C 1628.378906 1132.941406 1627.109375 1126.480469 1624.558594 1120.21875 C 1621.921875 1113.960938 1618.300781 1108.46875 1613.511719 1103.679688 Z M 782.875 1869.925781 C 785.324219 1873.449219 787.765625 1877.070312 790.316406 1880.5 C 793.9375 1885.683594 797.648438 1890.867188 801.46875 1895.957031 C 805.382812 1901.238281 809.394531 1906.421875 813.503906 1911.613281 C 830.234375 1932.945312 861.839844 1934.703125 881.019531 1915.527344 L 881.117188 1915.527344 L 1187.480469 1608.679688 C 1227.199219 1568.949219 1227.199219 1504.558594 1187.480469 1464.839844 L 1161.058594 1438.320312 C 1158.21875 1435.480469 1155.96875 1432.261719 1154.5 1428.539062 C 1152.941406 1424.820312 1152.160156 1420.898438 1152.160156 1416.890625 C 1152.160156 1412.878906 1152.941406 1409.070312 1154.5 1405.351562 C 1155.96875 1401.628906 1158.21875 1398.398438 1161.058594 1395.558594 L 1497.070312 1059.058594 C 1501.871094 1054.269531 1505.488281 1048.789062 1508.128906 1042.621094 C 1510.671875 1036.359375 1511.941406 1029.910156 1511.941406 1023.148438 C 1511.941406 1016.398438 1510.671875 1009.851562 1508.128906 1003.679688 C 1505.488281 997.421875 1501.871094 991.941406 1497.070312 987.148438 C 1492.269531 982.351562 1486.800781 978.730469 1480.628906 976.179688 C 1474.371094 973.539062 1467.910156 972.269531 1461.160156 972.269531 C 1454.410156 972.269531 1447.949219 973.539062 1441.691406 976.179688 C 1435.53125 978.730469 1430.039062 982.351562 1425.25 987.148438 L 1067.808594 1344.96875 C 1028.179688 1384.699219 1028.179688 1449.089844 1067.808594 1488.808594 L 1101.960938 1523.058594 C 1105.78125 1526.871094 1107.640625 1531.46875 1107.640625 1536.761719 C 1107.640625 1542.140625 1105.78125 1546.738281 1101.960938 1550.449219 L 848.242188 1804.46875 C 813.308594 1750.648438 786.402344 1693.019531 767.515625 1631.570312 C 748.726562 1570.121094 738.753906 1507.300781 737.472656 1443.109375 C 729.746094 1049.769531 1053.128906 728.140625 1445.988281 738.519531 C 1594.039062 742.429688 1730.628906 793.308594 1841.488281 876.769531 C 1846.289062 880.289062 1851.570312 882.839844 1857.351562 884.300781 C 1863.21875 885.769531 1868.988281 886.070312 1874.949219 885.179688 C 1880.929688 884.300781 1886.410156 882.351562 1891.589844 879.320312 C 1896.679688 876.28125 1901.078125 872.371094 1904.710938 867.578125 C 1908.320312 862.78125 1910.871094 857.5 1912.328125 851.628906 C 1913.800781 845.851562 1914.191406 839.980469 1913.308594 834.011719 C 1912.53125 828.140625 1910.570312 822.570312 1907.640625 817.378906 C 1904.609375 812.191406 1900.691406 807.789062 1895.890625 804.171875 C 1844.921875 765.808594 1790.03125 734.210938 1731.320312 709.351562 C 1635.039062 668.558594 1532.78125 647.910156 1427.5 647.910156 C 1322.121094 647.910156 1219.960938 668.558594 1123.679688 709.351562 C 1030.71875 748.691406 947.265625 804.960938 875.636719 876.769531 C 804.011719 948.488281 747.746094 1032.058594 708.417969 1125.109375 C 667.710938 1221.390625 647.0625 1323.738281 647.0625 1429.21875 C 647.0625 1534.699219 667.710938 1636.949219 708.417969 1733.328125 C 728.667969 1781.378906 753.519531 1826.878906 782.875 1869.925781 "/>
</svg>
